HIERARCHY
ROOT Hips
{
	OFFSET 0.00000 0.00000 0.00000
	CHANNELS 6 Xposition Yposition Zposition Zrotation Yrotation Xrotation 
	JOINT LHipJoint
	{
		OFFSET 0 0 0
		CHANNELS 3 Zrotation Yrotation Xrotation
		JOINT LeftHip
		{
			OFFSET 1.65412 -1.54119 0.76744
			CHANNELS 3 Zrotation Yrotation Xrotation
			JOINT LeftKnee
			{
				OFFSET 2.19550 -6.03209 0.00000
				CHANNELS 3 Zrotation Yrotation Xrotation
				JOINT LeftAnkle
				{
					OFFSET 2.38814 -6.56138 0.00000
					CHANNELS 3 Zrotation Yrotation Xrotation
					JOINT LeftToe
					{
						OFFSET 0.17337 -0.47632 1.75875
						CHANNELS 3 Zrotation Yrotation Xrotation
						End Site
						{
							OFFSET 0.00000 -0.00000 0.92050
						}
					}
				}
			}
		}
	}
	JOINT RHipJoint
	{
		OFFSET 0 0 0
		CHANNELS 3 Zrotation Yrotation Xrotation
		JOINT RightHip
		{
			OFFSET -1.40291 -1.54119 0.76744
			CHANNELS 3 Zrotation Yrotation Xrotation
			JOINT RightKnee
			{
				OFFSET -2.22156 -6.10370 0.00000
				CHANNELS 3 Zrotation Yrotation Xrotation
				JOINT RightAnkle
				{
					OFFSET -2.46840 -6.78188 0.00000
					CHANNELS 3 Zrotation Yrotation Xrotation
					JOINT RightToe
					{
						OFFSET -0.15659 -0.43024 1.84117
						CHANNELS 3 Zrotation Yrotation Xrotation
						End Site
						{
							OFFSET -0.00000 -0.00000 0.95587
						}
					}
				}
			}
		}
	}
	JOINT lowerback
	{
		OFFSET 0 0 0
		CHANNELS 3 Zrotation Yrotation Xrotation
		JOINT Chest
		{
			OFFSET -0.01936 1.82120 -0.32061
			CHANNELS 3 Zrotation Yrotation Xrotation
			JOINT Chest2
			{
				OFFSET -0.00532 1.85767 -0.00071
				CHANNELS 3 Zrotation Yrotation Xrotation
				JOINT lowerneck
				{
					OFFSET 0 0 0
					CHANNELS 3 Zrotation Yrotation Xrotation
					JOINT Neck
					{
						OFFSET -0.10687 1.58194 0.10810
						CHANNELS 3 Zrotation Yrotation Xrotation
						JOINT Head
						{
							OFFSET 0.15346 1.57382 -0.25612
							CHANNELS 3 Zrotation Yrotation Xrotation
							End Site
							{
								OFFSET 0.05334 1.61251 -0.10513
							}
						}
					}
				}
				JOINT LeftCollar
				{
					OFFSET 0 0 0
					CHANNELS 3 Zrotation Yrotation Xrotation
					JOINT LeftShoulder
					{
						OFFSET 2.85758 0.89498 -0.01485
CHANNELS 3 Zrotation Xrotation Yrotation
						JOINT LeftElbow
						{
OFFSET 0 -4.791850 -0.000000
CHANNELS 3 Zrotation Xrotation Yrotation
							JOINT LeftWrist
							{
OFFSET 0 -2.655530 0.000000
CHANNELS 3 Zrotation Xrotation Yrotation
								JOINT lhand
								{
									OFFSET 0 0 0
CHANNELS 3 Zrotation Xrotation Yrotation
									JOINT LFingers
									{
OFFSET 0 -0.743900 0.000000
CHANNELS 3 Zrotation Xrotation Yrotation
										End Site
										{
OFFSET 0 -0.599750 0.000000
										}
									}
								}
								JOINT LThumb
								{
OFFSET 0 0.000000 0.000000
CHANNELS 3 Zrotation Xrotation Yrotation
									End Site
									{
OFFSET 0 -0.608910 0.608910
									}
								}
							}
						}
					}
				}
				JOINT RightCollar
				{
					OFFSET 0 0 0
					CHANNELS 3 Zrotation Yrotation Xrotation
					JOINT RightShoulder
					{
						OFFSET -2.93906 0.88031 0.02490
CHANNELS 3 Zrotation Xrotation Yrotation
						JOINT RightElbow
						{
OFFSET 0 -4.772540 -0.000000
CHANNELS 3 Zrotation Xrotation Yrotation
							JOINT RightWrist
							{
OFFSET 0 -2.759950 -0.000000
CHANNELS 3 Zrotation Xrotation Yrotation
								JOINT rhand
								{
									OFFSET 0 0 0
CHANNELS 3 Zrotation Xrotation Yrotation
									JOINT RFingers
									{
OFFSET 0 -0.701620 0.000000
CHANNELS 3 Zrotation Xrotation Yrotation
										End Site
										{
OFFSET 0 -0.565660 0.000000
										}
									}
								}
								JOINT RThumb
								{
OFFSET 0 0.000000 0.000000
CHANNELS 3 Zrotation Xrotation Yrotation
									End Site
									{
OFFSET 0 -0.574300 0.574300
									}
								}
							}
						}
					}
				}
			}
		}
	}
}
MOTION
Frames: 5
Frame Time: 0.008333333333333333
-16.600600 15.808600 11.048200 -173.490000 65.565800 -171.418000 0.000000 0.000000 0.000000 -21.099600 -11.927000 -7.577900 2.379600 9.615600 27.740600 1.091500 7.866500 -24.053700 0.000200 -0.097200 -0.266900 0.000000 0.000000 0.000000 23.584600 13.188000 -4.673000 -2.074300 -9.019100 25.855200 -0.795100 -7.882700 -21.487600 -0.040600 1.300000 -3.574600 -0.867500 -1.158000 6.776200 0.249600 -1.609900 -1.863700 0.933300 -0.759200 -5.711500 -19.097500 -14.864500 -2.713900 12.325700 -20.954100 21.674000 4.772800 -10.170800 10.807200 0.000000 0.000000 0.000000 0.299200 -0.013700 -25.382400 11.943000 -19.719200 2.083000 11.305200 8.336600 -14.231400 0.000000 0.000000 0.000000 -7.125000 0.000000 0.000000 -14.794900 43.969100 -0.385300 0.000000 0.000000 0.000000 0.862000 -1.452300 34.627900 -12.024900 -19.841900 -2.110700 -14.803600 12.374000 -14.796300 0.000000 0.000000 0.000000 7.125000 0.000000 -0.000000 8.629700 14.818200 6.207600
-16.599949 15.806937 11.039309 -173.615057 65.515199 -171.509082 0.000000 0.000000 0.000000 -21.209260 -12.076490 -7.535973 2.382202 9.620443 27.756214 1.119692 7.692866 -24.157577 0.005983 0.396015 1.088267 0.000000 0.000000 0.000000 23.472410 13.035040 -4.753239 -2.081529 -9.033774 25.901102 -0.816569 -7.744415 -21.577164 -0.043058 1.339252 -3.682742 -0.874150 -1.141013 6.743598 0.252347 -1.587419 -1.906133 0.937204 -0.747345 -5.737813 -18.859820 -14.673951 -3.139960 11.977710 -20.585074 22.171697 4.659598 -9.982637 10.934425 0.000000 0.000000 0.000000 0.282140 -0.086927 -25.362449 12.017022 -19.830233 2.108084 10.299830 8.471994 -14.615245 0.000000 0.000000 0.000000 -7.125000 0.000000 0.000000 -15.804318 44.231502 -0.305134 0.000000 0.000000 0.000000 0.798098 -1.415578 34.328053 -11.945673 -19.723060 -2.083954 -14.762541 12.536718 -15.020101 0.000000 0.000000 0.000000 7.125000 0.000000 0.000000 8.658976 14.594254 6.271140
-16.600636 15.806211 11.032602 -173.762401 65.418597 -171.560938 0.000000 0.000000 0.000000 -21.292264 -12.251253 -7.602452 2.393095 9.640843 27.821395 1.138523 7.726681 -24.333931 0.004589 0.357504 0.982378 0.000000 0.000000 0.000000 23.352598 12.911143 -4.888883 -2.086306 -9.043501 25.931537 -0.832734 -7.650303 -21.652241 -0.048368 1.417997 -3.899734 -0.890518 -1.148095 6.671727 0.247516 -1.597967 -1.961224 0.941642 -0.751626 -5.754140 -18.608277 -14.439630 -3.571682 11.659584 -20.159795 22.669305 4.565564 -9.765723 11.057862 0.000000 0.000000 0.000000 0.287368 -0.158148 -25.445152 12.101786 -19.957090 2.136956 9.810007 8.400073 -14.728657 0.000000 0.000000 0.000000 -7.125000 0.000000 0.000000 -16.273094 44.287704 -0.294325 0.000000 0.000000 0.000000 0.758534 -1.406626 34.015012 -11.851425 -19.581398 -2.052304 -14.718718 12.760816 -15.160637 0.000000 0.000000 0.000000 7.125000 0.000000 0.000000 8.689590 14.455223 6.319882
-16.602677 15.806016 11.027893 -173.877401 65.276804 -171.549963 0.000000 0.000000 0.000000 -21.332695 -12.436908 -7.740813 2.409228 9.670999 27.917763 1.149680 7.884987 -24.537305 0.000892 -0.013297 -0.036553 0.000000 0.000000 0.000000 23.253424 12.804539 -5.055299 -2.089576 -9.050185 25.952474 -0.845129 -7.593703 -21.721869 -0.054997 1.513185 -4.162059 -0.892069 -1.174105 6.581544 0.237283 -1.632574 -2.014390 0.934374 -0.768535 -5.758005 -18.315438 -14.163949 -4.020142 11.355440 -19.679495 23.159556 4.480107 -9.519485 11.172080 0.000000 0.000000 0.000000 0.324510 -0.239571 -25.657421 12.193736 -20.094476 2.168420 9.804401 8.125271 -14.647447 0.000000 0.000000 0.000000 -7.125000 0.000000 0.000000 -16.252538 44.208203 -0.326232 0.000000 0.000000 0.000000 0.749512 -1.435308 33.673096 -11.740149 -19.413777 -2.015162 -14.695805 13.033949 -15.234922 0.000000 0.000000 0.000000 7.125000 0.000000 0.000000 8.705657 14.381732 6.345563
-16.606436 15.805654 11.025291 -173.840534 65.080472 -171.412618 0.000000 0.000000 0.000000 -21.287660 -12.606710 -7.893917 2.425637 9.701432 28.015351 1.154740 8.028549 -24.681373 0.004290 -0.389697 -1.070838 0.000000 0.000000 0.000000 23.237666 12.695386 -5.209632 -2.092901 -9.056980 25.973799 -0.855972 -7.570138 -21.803192 -0.060130 1.581713 -4.350945 -0.825059 -1.213140 6.511426 0.224777 -1.678766 -2.035353 0.887532 -0.793980 -5.741307 -17.915184 -13.841765 -4.512056 11.036220 -19.133293 23.625808 4.383676 -9.235614 11.263740 0.000000 0.000000 0.000000 0.421013 -0.358628 -26.085794 12.287347 -20.234135 2.200660 10.336868 7.607261 -14.479162 0.000000 0.000000 0.000000 -7.125000 0.000000 0.000000 -15.728384 44.104037 -0.356810 0.000000 0.000000 0.000000 0.791150 -1.530944 33.263228 -11.603598 -19.207470 -1.969982 -14.747274 13.342832 -15.261596 0.000000 0.000000 0.000000 7.125000 0.000000 0.000000 8.671176 14.350142 6.325684
